<?xml version="1.0" encoding="UTF-8" standalone="no"?>
<!DOCTYPE svg PUBLIC "-//W3C//DTD SVG 1.1//EN" "http://www.w3.org/Graphics/SVG/1.1/DTD/svg11.dtd">
<svg width="100%" height="100%" viewBox="0 0 1280 1248" version="1.1" xmlns="http://www.w3.org/2000/svg" xmlns:xlink="http://www.w3.org/1999/xlink" xml:space="preserve" xmlns:serif="http://www.serif.com/" style="fill-rule:evenodd;clip-rule:evenodd;stroke-linejoin:round;stroke-miterlimit:2;">
    <g transform="matrix(0.25514,3.02791e-18,-3.02791e-18,-0.230415,-1925.59,1266.43)">
        <path d="M9809,5485C9541,5434 9310,5310 9110,5110C8844,4845 8700,4509 8700,4155C8700,4089 8707,3995 8716,3945C8734,3839 8796,3648 8839,3561C8856,3528 8870,3498 8870,3495C8870,3492 8846,3490 8818,3490C8643,3490 8376,3406 8187,3293C8091,3235 7942,3111 7880,3039C7723,2854 7609,2616 7564,2384C7540,2257 7542,2027 7568,1895C7655,1460 7913,1121 8307,925C8482,838 8630,801 8840,793C8960,789 9006,791 9108,809C9239,831 9369,871 9469,918C9503,934 9530,943 9530,938C9530,921 9467,804 9412,720C9315,570 9240,506 8900,281L8595,80L10054,80C10902,80 11510,84 11504,89C11499,94 11361,186 11198,293C10880,502 10816,556 10720,691C10669,764 10571,945 10587,939C10591,937 10643,916 10701,893C11163,709 11686,781 12062,1080C12255,1234 12440,1500 12510,1726C12555,1874 12564,1938 12564,2125C12565,2325 12548,2429 12488,2599C12400,2848 12232,3078 12026,3232C11842,3369 11564,3471 11333,3487L11241,3493L11272,3553C11311,3632 11365,3796 11386,3907C11410,4029 11410,4293 11387,4413C11348,4609 11268,4793 11158,4941C11082,5043 10912,5204 10809,5273C10666,5367 10501,5437 10327,5475C10224,5498 9909,5504 9809,5485Z" style="fill-rule:nonzero;"/>
    </g>
</svg>
