<?xml version="1.0" encoding="UTF-8" standalone="no"?>
<!DOCTYPE svg PUBLIC "-//W3C//DTD SVG 1.1//EN" "http://www.w3.org/Graphics/SVG/1.1/DTD/svg11.dtd">
<svg width="100%" height="100%" viewBox="0 0 1280 1248" version="1.1" xmlns="http://www.w3.org/2000/svg" xmlns:xlink="http://www.w3.org/1999/xlink" xml:space="preserve" xmlns:serif="http://www.serif.com/" style="fill-rule:evenodd;clip-rule:evenodd;stroke-linejoin:round;stroke-miterlimit:2;">
    <g transform="matrix(0.233349,6.14658e-19,-6.14658e-19,-0.22833,-1706.81,2821.2)">
        <path d="M8762,12350C8451,12306 8139,12142 7867,11880C7676,11697 7565,11548 7470,11348C7274,10935 7263,10465 7438,9950C7575,9547 7863,9061 8229,8615C8487,8299 8978,7791 9295,7510C9547,7287 9861,7030 10028,6912L10058,6890L10142,6952C10666,7340 11319,7950 11760,8465C12641,9494 12967,10411 12719,11165C12542,11701 12030,12180 11490,12314C11034,12426 10547,12301 10128,11964L10060,11909L9969,11980C9743,12154 9509,12269 9260,12327C9178,12346 9119,12352 8990,12355C8899,12357 8797,12355 8762,12350Z" style="fill:rgb(255,38,0);fill-rule:nonzero;"/>
    </g>
</svg>
