<?xml version="1.0" encoding="UTF-8" standalone="no"?>
<!DOCTYPE svg PUBLIC "-//W3C//DTD SVG 1.1//EN" "http://www.w3.org/Graphics/SVG/1.1/DTD/svg11.dtd">
<svg width="100%" height="100%" viewBox="0 0 1280 1248" version="1.1" xmlns="http://www.w3.org/2000/svg" xmlns:xlink="http://www.w3.org/1999/xlink" xml:space="preserve" xmlns:serif="http://www.serif.com/" style="fill-rule:evenodd;clip-rule:evenodd;stroke-linejoin:round;stroke-miterlimit:2;">
    <g transform="matrix(0.271878,5.69151e-18,-5.69151e-18,-0.225403,-118.811,2812.58)">
        <path d="M1738,11138C1157,10399 667,9770 648,9740C508,9520 437,9274 437,9005C437,8643 565,8323 813,8063C1012,7855 1247,7724 1533,7663C1595,7649 1661,7645 1800,7645C1970,7645 1994,7647 2098,7673C2161,7689 2214,7700 2216,7697C2224,7689 2154,7579 2086,7495C2003,7390 1939,7339 1620,7124L1355,6945L2078,6942C2476,6941 3123,6941 3516,6942L4231,6945L3948,7135C3622,7353 3526,7438 3421,7600C3387,7652 3363,7696 3368,7698C3373,7699 3423,7689 3481,7674C3561,7654 3620,7647 3735,7643C3980,7634 4169,7674 4385,7779C4710,7938 4954,8214 5073,8556C5129,8719 5144,8812 5145,9005C5145,9197 5130,9288 5073,9455C5031,9577 4973,9690 4904,9786C4875,9826 4389,10447 3824,11167C3259,11886 2796,12476 2795,12478C2794,12479 2318,11876 1738,11138Z" style="fill-rule:nonzero;"/>
    </g>
</svg>
